<?xml version="1.0" encoding="UTF-8" standalone="no"?>
<!DOCTYPE svg PUBLIC "-//W3C//DTD SVG 1.1//EN" "http://www.w3.org/Graphics/SVG/1.1/DTD/svg11.dtd">
<svg width="100%" height="100%" viewBox="0 0 651 139" version="1.1" xmlns="http://www.w3.org/2000/svg" xmlns:xlink="http://www.w3.org/1999/xlink" xml:space="preserve" xmlns:serif="http://www.serif.com/" style="fill-rule:evenodd;clip-rule:evenodd;stroke-linejoin:round;stroke-miterlimit:2;">
    <g id="Mesa-de-trabajo1" serif:id="Mesa de trabajo1" transform="matrix(0.745252,0,0,0.523361,-78.1494,-218.522)">
        <rect x="104.863" y="417.536" width="873.403" height="265.58" style="fill:none;"/>
        <g transform="matrix(1.34183,0,0,1.91073,9.25134,-33.7372)">
            <path d="M323.16,313.2L323.16,275.57L325.67,275.57L341.97,294.13L358.3,275.57L360.81,275.57L360.81,313.2L353.28,313.2L353.26,291.37L341.97,303.92L330.68,291.37L330.68,313.2L323.16,313.2Z" style="fill:rgb(0,160,223);fill-rule:nonzero;"/>
            <path d="M365.89,300.66C365.89,296.99 367.05,293.97 369.4,291.63C371.74,289.29 374.75,288.12 378.43,288.12C382.11,288.12 385.03,289.29 387.2,291.63C389.37,293.97 390.46,296.99 390.46,300.66L390.46,303.16L373.15,303.16C373.32,304.5 373.91,305.55 374.91,306.3C375.91,307.04 377.08,307.42 378.42,307.42C380.75,307.42 382.85,306.75 384.69,305.41L388.7,309.43C386.86,311.94 383.43,313.19 378.42,313.19C374.74,313.19 371.73,312.02 369.39,309.68C367.05,307.35 365.89,304.34 365.89,300.66M381.94,295.01C380.93,294.26 379.76,293.89 378.43,293.89C377.09,293.89 375.92,294.27 374.92,295.01C373.91,295.76 373.41,296.82 373.41,298.15L383.44,298.15C383.44,296.82 382.94,295.77 381.94,295.01" style="fill:rgb(0,160,223);fill-rule:nonzero;"/>
            <path d="M402.22,300.13L394.09,288.17L401.22,288.17L405.81,294.88L410.39,288.17L417.51,288.17L409.39,300.13L418.32,313.2L411.12,313.2L405.81,305.38L400.49,313.2L393.28,313.2L402.22,300.13Z" style="fill:rgb(0,160,223);fill-rule:nonzero;"/>
            <path d="M423.2,279.58C423.87,278.9 424.77,278.57 425.91,278.57C427.11,278.57 428.05,278.9 428.71,279.58C429.39,280.25 429.72,281.1 429.72,282.1C429.72,283.1 429.39,283.94 428.71,284.6C428.05,285.27 427.13,285.61 425.95,285.61C424.78,285.61 423.86,285.28 423.19,284.6C422.53,283.93 422.19,283.1 422.19,282.1C422.2,281.09 422.53,280.25 423.2,279.58M429.47,288.1L422.45,288.1L422.45,313.2L429.47,313.2L429.47,288.1Z" style="fill:rgb(0,160,223);fill-rule:nonzero;"/>
            <path d="M437.55,310.06C435.05,307.97 433.8,305.25 433.8,301.91L433.8,299.41C433.8,296.06 435.05,293.35 437.55,291.26C440.07,289.16 443,288.12 446.36,288.12C450.37,288.12 453.7,289.54 456.36,292.39L451.34,296.15C449.85,294.65 448.17,293.9 446.33,293.9C444.66,293.9 443.2,294.56 441.93,295.9C440.68,297.24 440.06,298.83 440.06,300.66C440.06,302.5 440.65,304.09 441.81,305.42C442.99,306.76 444.49,307.43 446.33,307.43C448.17,307.43 449.84,306.68 451.34,305.17L456.36,308.93C453.69,311.78 450.35,313.2 446.33,313.2C443,313.2 440.07,312.15 437.55,310.06" style="fill:rgb(0,160,223);fill-rule:nonzero;"/>
            <path d="M461.35,291.13C464.52,289.12 468.2,288.11 472.38,288.11C475.39,288.11 477.77,288.95 479.53,290.62C481.29,292.29 482.17,294.8 482.17,298.15L482.17,313.2L475.15,313.2L475.15,311.19C473.11,312.53 471.27,313.2 469.63,313.2C466.29,313.2 463.77,312.49 462.11,311.07C460.44,309.65 459.6,307.68 459.6,305.17C459.6,302.83 460.4,300.73 461.97,298.9C463.55,297.05 466.1,296.14 469.63,296.14C471.25,296.14 473.09,296.65 475.15,297.64L475.15,296.89C475.11,295.05 473.77,294.05 471.14,293.88C468.13,293.88 465.79,294.38 464.12,295.38L461.35,291.13ZM475.14,305.68L475.14,302.84C474.46,301.56 472.88,300.92 470.38,300.92C467.37,301.25 465.78,302.42 465.62,304.42C465.79,306.41 467.37,307.49 470.38,307.67C472.88,307.67 474.47,306.99 475.14,305.68" style="fill:rgb(0,160,223);fill-rule:nonzero;"/>
            <path d="M494.94,297.24L494.94,313.2L487.92,313.2L487.92,288.85L494.94,288.1L494.94,290.39C496.64,288.88 498.64,288.12 500.96,288.12C504.14,288.12 506.57,289.09 508.24,291C509.92,292.94 510.75,295.15 510.75,297.65L510.75,313.21L503.72,313.21L503.72,299.42C503.72,297.74 503.32,296.45 502.47,295.53C501.64,294.61 500.38,294.13 498.68,294.08C497.22,294.16 495.98,295.23 494.94,297.24" style="fill:rgb(0,160,223);fill-rule:nonzero;"/>
            <path d="M516.6,291.13C519.78,289.12 523.46,288.11 527.63,288.11C530.64,288.11 533.03,288.95 534.79,290.62C536.54,292.29 537.41,294.8 537.41,298.15L537.41,313.2L530.38,313.2L530.38,311.19C528.34,312.53 526.5,313.2 524.87,313.2C521.52,313.2 519.02,312.49 517.35,311.07C515.67,309.65 514.85,307.68 514.85,305.17C514.85,302.83 515.64,300.73 517.22,298.9C518.79,297.05 521.35,296.14 524.87,296.14C526.5,296.14 528.33,296.65 530.38,297.64L530.38,296.89C530.35,295.05 529.02,294.05 526.37,293.88C523.36,293.88 521.02,294.38 519.35,295.38L516.6,291.13ZM530.39,305.68L530.39,302.84C529.73,301.56 528.14,300.92 525.63,300.92C522.63,301.25 521.03,302.42 520.87,304.42C521.04,306.41 522.63,307.49 525.63,307.67C528.14,307.67 529.72,306.99 530.39,305.68" style="fill:rgb(0,160,223);fill-rule:nonzero;"/>
            <path d="M567.86,313.2L561.69,313.2L561.69,309.63C559.29,312.39 556.56,313.77 553.54,313.77C550.16,313.77 547.49,312.49 545.49,309.92C543.67,307.57 542.75,304.64 542.75,301.14C542.75,297.51 543.82,294.5 545.97,292.1C548.13,289.71 550.84,288.52 554.12,288.52C557.23,288.52 559.76,289.74 561.69,292.22L561.69,277.81L567.86,277.81L567.86,313.2ZM561.68,300.86C561.68,298.26 561.11,296.19 559.99,294.64C558.86,293.1 557.35,292.33 555.47,292.33C553.65,292.33 552.21,293.09 551.13,294.59C550.07,296.1 549.54,298.18 549.54,300.81C549.54,303.57 550.08,305.8 551.18,307.48C552.29,309.17 553.73,310.01 555.51,310.01C557.36,310.01 558.85,309.16 559.99,307.48C561.12,305.8 561.68,303.59 561.68,300.86" style="fill:rgb(245,179,53);fill-rule:nonzero;"/>
            <path d="M595.49,300.95C595.49,301.01 595.27,301.14 594.86,301.34C594.43,301.54 594.23,301.68 594.23,301.77L579.71,301.77C579.75,304.21 580.45,306.15 581.82,307.56C583.18,308.98 584.96,309.68 587.15,309.68C589.2,309.68 591.29,309.03 593.41,307.75L595.19,311.08C592.01,312.88 588.87,313.78 585.8,313.78C582.27,313.78 579.34,312.69 577.02,310.49C574.35,307.99 573.02,304.75 573.02,300.76C573.02,297.1 574.2,294.11 576.59,291.79C578.84,289.61 581.7,288.52 585.17,288.52C589.55,288.52 592.54,290.27 594.14,293.81C595,295.72 595.46,298.09 595.49,300.95M589.79,298.54C589.79,298.25 589.78,297.87 589.75,297.38C589.49,293.75 587.93,291.94 585.07,291.94C581.69,291.94 579.91,294.14 579.71,298.54L589.79,298.54Z" style="fill:rgb(245,179,53);fill-rule:nonzero;"/>
            <path d="M625.03,303.41C625.03,307.07 623.28,309.8 619.77,311.6C617.72,312.66 614.69,313.2 610.71,313.2L601.06,313.2L601.06,279.45L611.1,279.45C615.11,279.45 617.92,279.89 619.53,280.8C621.82,282.08 622.95,284.09 622.95,286.83C622.95,290.78 620.66,293.46 616.07,294.87C617.74,295 619.22,295.37 620.5,295.98C623.52,297.44 625.03,299.9 625.03,303.41M616.69,287.89C616.69,286.12 615.96,284.87 614.46,284.13C613.75,283.78 612.35,283.6 610.25,283.6L607.73,283.6L607.73,293.53L609.29,293.53C611.65,293.53 613.47,293 614.76,291.94C616.04,290.88 616.69,289.52 616.69,287.89M618.04,303.31C618.04,300.97 617.12,299.34 615.25,298.44C614.19,297.93 612.62,297.67 610.52,297.67L607.73,297.67L607.73,309.09L610.58,309.09C613.02,309.09 614.8,308.66 615.93,307.78C617.33,306.71 618.04,305.21 618.04,303.31" style="fill:rgb(245,179,53);fill-rule:nonzero;"/>
            <path d="M651.16,300.95C651.16,301.01 650.95,301.14 650.53,301.34C650.12,301.54 649.91,301.68 649.91,301.77L635.4,301.77C635.44,304.21 636.13,306.15 637.5,307.56C638.87,308.98 640.64,309.68 642.82,309.68C644.88,309.68 646.96,309.03 649.09,307.75L650.88,311.08C647.7,312.88 644.57,313.78 641.47,313.78C637.93,313.78 635.01,312.69 632.69,310.49C630.03,307.99 628.7,304.75 628.7,300.76C628.7,297.1 629.89,294.11 632.27,291.79C634.51,289.61 637.37,288.52 640.85,288.52C645.21,288.52 648.21,290.27 649.81,293.81C650.69,295.72 651.13,298.09 651.16,300.95M645.48,298.54C645.48,298.25 645.45,297.87 645.42,297.38C645.17,293.75 643.6,291.94 640.74,291.94C637.38,291.94 635.61,294.14 635.4,298.54L645.48,298.54Z" style="fill:rgb(245,179,53);fill-rule:nonzero;"/>
            <path d="M675.81,311.46C673.3,313.01 670.52,313.78 667.46,313.78C663.81,313.78 660.77,312.61 658.35,310.29C655.93,307.96 654.74,304.95 654.74,301.25C654.74,297.58 655.99,294.55 658.52,292.13C661.05,289.72 664.24,288.53 668.12,288.53C670.86,288.53 673.3,289.18 675.46,290.5L673.59,293.88C672.01,293.14 670.47,292.77 668.97,292.77C666.74,292.77 664.93,293.52 663.57,295.01C662.21,296.51 661.53,298.49 661.53,300.97C661.53,303.55 662.21,305.61 663.6,307.19C664.98,308.76 666.78,309.55 669.04,309.55C670.57,309.55 672.25,309.05 674.07,308.05L675.81,311.46Z" style="fill:rgb(245,179,53);fill-rule:nonzero;"/>
            <path d="M699.91,313.2L693.17,313.2C692.82,312.2 692.61,311.12 692.58,309.98C690.46,312.51 687.89,313.78 684.87,313.78C682.94,313.78 681.3,313.12 679.95,311.78C678.6,310.45 677.93,308.79 677.93,306.79C677.93,303.9 679.4,301.58 682.33,299.85C684,298.85 686.16,298.05 688.76,297.45C689.82,297.19 691.16,296.89 692.78,296.53C692.13,293.64 690.5,292.19 687.9,292.19C685.89,292.19 683.87,293.07 681.8,294.8L679.71,291.81C682.51,289.63 685.7,288.54 689.27,288.54C693.06,288.54 695.76,289.62 697.36,291.81C697.96,292.64 698.39,293.51 698.62,294.42C698.86,295.45 698.96,297 698.96,299.09L698.96,305.55C698.94,308.91 699.27,311.46 699.91,313.2M692.77,302.45L692.77,300.14C692.25,300.27 691.39,300.48 690.2,300.76C686.09,301.76 684.04,303.48 684.04,305.92C684.04,306.95 684.34,307.79 684.98,308.47C685.61,309.15 686.39,309.48 687.33,309.48C688.49,309.48 689.55,309.09 690.5,308.32C691.34,307.65 691.91,306.84 692.2,305.91C692.61,304.67 692.81,303.51 692.77,302.45" style="fill:rgb(245,179,53);fill-rule:nonzero;"/>
            <path d="M720.64,306.55C720.64,308.67 719.8,310.4 718.09,311.75C716.39,313.1 714.21,313.78 711.57,313.78C708.62,313.78 705.96,312.85 703.58,310.99L705.65,307.61C707.54,309.22 709.26,310.03 710.82,310.03C711.82,310.03 712.67,309.77 713.29,309.23C713.91,308.7 714.24,307.98 714.24,307.08C714.24,306.32 713.96,305.62 713.45,305.01C712.95,304.39 711.81,303.47 710.07,302.21C708.35,300.96 707.18,299.99 706.56,299.32C705.46,298.07 704.92,296.69 704.92,295.17C704.92,293.22 705.69,291.62 707.24,290.38C708.78,289.15 710.75,288.54 713.16,288.54C715.68,288.54 717.98,289.19 720.06,290.51L718.19,293.55C716.92,292.65 715.58,292.2 714.17,292.2C713.3,292.2 712.59,292.43 712.03,292.88C711.48,293.33 711.18,293.89 711.18,294.56C711.18,295.53 712.29,296.82 714.49,298.46C716.95,300.3 718.6,301.74 719.41,302.78C720.23,303.8 720.64,305.06 720.64,306.55" style="fill:rgb(245,179,53);fill-rule:nonzero;"/>
            <path d="M324.15,328.79L335.13,328.79L335.13,330.77L326.43,330.77L326.43,339L334.73,339L334.73,340.99L326.43,340.99L326.43,351.86L324.15,351.86L324.15,328.79Z" style="fill:rgb(111,111,110);fill-rule:nonzero;"/>
            <path d="M345.31,334.6C350.77,334.6 353.19,338.83 353.19,343.42C353.19,348.03 350.77,352.26 345.31,352.26C339.86,352.26 337.45,348.03 337.45,343.42C337.44,338.83 339.86,334.6 345.31,334.6M345.31,350.47C348.96,350.47 350.91,347.33 350.91,343.42C350.91,339.53 348.96,336.38 345.31,336.38C341.68,336.38 339.73,339.52 339.73,343.42C339.72,347.33 341.67,350.47 345.31,350.47" style="fill:rgb(111,111,110);fill-rule:nonzero;"/>
            <path d="M356.96,338.97C356.96,337.67 356.96,336.36 356.83,335.01L358.85,335.01L358.85,338.01L358.91,338.01C359.6,336.5 360.86,334.61 364.36,334.61C368.53,334.61 370.11,337.39 370.11,341.09L370.11,351.87L368.03,351.87L368.03,341.62C368.03,338.44 366.92,336.39 364.03,336.39C360.23,336.39 359.04,339.72 359.04,342.53L359.04,351.86L356.96,351.86L356.96,338.97Z" style="fill:rgb(111,111,110);fill-rule:nonzero;"/>
            <path d="M388.53,351.86L386.45,351.86L386.45,349.18L386.38,349.18C385.25,351.33 383.53,352.26 381.12,352.26C376.49,352.26 374.18,348.42 374.18,343.42C374.18,338.3 376.17,334.6 381.12,334.6C384.43,334.6 386.08,337.02 386.38,337.83L386.45,337.83L386.45,327.06L388.53,327.06L388.53,351.86ZM381.46,350.47C385.15,350.47 386.45,346.5 386.45,343.42C386.45,340.35 385.15,336.38 381.46,336.38C377.49,336.38 376.46,340.15 376.46,343.42C376.46,346.7 377.49,350.47 381.46,350.47" style="fill:rgb(111,111,110);fill-rule:nonzero;"/>
            <path d="M399.98,334.6C405.43,334.6 407.84,338.83 407.84,343.42C407.84,348.03 405.42,352.26 399.98,352.26C394.52,352.26 392.11,348.03 392.11,343.42C392.11,338.83 394.51,334.6 399.98,334.6M399.98,350.47C403.61,350.47 405.57,347.33 405.57,343.42C405.57,339.53 403.62,336.38 399.98,336.38C396.35,336.38 394.4,339.52 394.4,343.42C394.39,347.33 396.34,350.47 399.98,350.47" style="fill:rgb(111,111,110);fill-rule:nonzero;"/>
            <path d="M434.01,351.86L431.93,351.86L431.93,349.18L431.86,349.18C430.73,351.33 429.01,352.26 426.6,352.26C421.97,352.26 419.65,348.42 419.65,343.42C419.65,338.3 421.65,334.6 426.6,334.6C429.92,334.6 431.56,337.02 431.86,337.83L431.93,337.83L431.93,327.06L434.01,327.06L434.01,351.86ZM426.93,350.47C430.63,350.47 431.93,346.5 431.93,343.42C431.93,340.35 430.63,336.38 426.93,336.38C422.96,336.38 421.93,340.15 421.93,343.42C421.93,346.7 422.96,350.47 426.93,350.47" style="fill:rgb(111,111,110);fill-rule:nonzero;"/>
            <path d="M450.19,351.33C448.73,351.93 446.84,352.26 445.29,352.26C439.71,352.26 437.63,348.48 437.63,343.42C437.63,338.26 440.46,334.6 444.73,334.6C449.49,334.6 451.44,338.43 451.44,342.97L451.44,344.02L439.9,344.02C439.9,347.6 441.82,350.47 445.45,350.47C446.97,350.47 449.18,349.85 450.18,349.21L450.18,351.33L450.19,351.33ZM449.15,342.24C449.15,339.3 447.97,336.39 444.85,336.39C441.78,336.39 439.9,339.47 439.9,342.24L449.15,342.24Z" style="fill:rgb(111,111,110);fill-rule:nonzero;"/>
            <path d="M473.96,349.15L473.89,349.15C472.96,351.16 470.63,352.26 468.53,352.26C463.74,352.26 462.98,349.01 462.98,347.5C462.98,341.83 468.99,341.58 473.36,341.58L473.76,341.58L473.76,340.72C473.76,337.83 472.75,336.39 469.93,336.39C468.18,336.39 466.52,336.79 464.97,337.77L464.97,335.75C466.26,335.13 468.45,334.6 469.93,334.6C474.1,334.6 475.85,336.48 475.85,340.88L475.85,348.32C475.85,349.68 475.85,350.7 476.01,351.86L473.96,351.86L473.96,349.15ZM473.76,343.37L473.17,343.37C469.57,343.37 465.27,343.73 465.27,347.43C465.27,349.64 466.86,350.47 468.77,350.47C473.66,350.47 473.76,346.2 473.76,344.39L473.76,343.37Z" style="fill:rgb(111,111,110);fill-rule:nonzero;"/>
            <path d="M480.64,327.06L482.72,327.06L482.72,337.83L482.79,337.83C483.69,335.99 485.57,334.6 488.05,334.6C492.57,334.6 493.8,337.6 493.8,341.78L493.8,351.86L491.72,351.86L491.72,341.81C491.72,338.9 491.15,336.38 487.72,336.38C484.01,336.38 482.72,339.88 482.72,342.82L482.72,351.85L480.64,351.85L480.64,327.06Z" style="fill:rgb(111,111,110);fill-rule:nonzero;"/>
            <path d="M505.44,334.6C510.89,334.6 513.3,338.83 513.3,343.42C513.3,348.03 510.89,352.26 505.44,352.26C499.98,352.26 497.58,348.03 497.58,343.42C497.58,338.83 499.98,334.6 505.44,334.6M505.44,350.47C509.07,350.47 511.02,347.33 511.02,343.42C511.02,339.53 509.07,336.38 505.44,336.38C501.81,336.38 499.86,339.52 499.86,343.42C499.86,347.33 501.81,350.47 505.44,350.47" style="fill:rgb(111,111,110);fill-rule:nonzero;"/>
            <path d="M517.08,338.77C517.08,336.92 517.08,336.22 516.95,335L519.03,335L519.03,338.23L519.1,338.23C519.86,336.35 521.28,334.6 523.43,334.6C523.93,334.6 524.52,334.7 524.88,334.8L524.88,336.98C524.46,336.84 523.89,336.78 523.36,336.78C520.06,336.78 519.16,340.48 519.16,343.53L519.16,351.86L517.08,351.86L517.08,338.77Z" style="fill:rgb(111,111,110);fill-rule:nonzero;"/>
            <path d="M527.93,338.77C527.93,336.92 527.93,336.22 527.8,335L529.88,335L529.88,338.23L529.95,338.23C530.72,336.35 532.13,334.6 534.28,334.6C534.78,334.6 535.37,334.7 535.73,334.8L535.73,336.98C535.31,336.84 534.74,336.78 534.21,336.78C530.91,336.78 530.01,340.48 530.01,343.53L530.01,351.86L527.93,351.86L527.93,338.77Z" style="fill:rgb(111,111,110);fill-rule:nonzero;"/>
            <path d="M544.77,334.6C550.22,334.6 552.64,338.83 552.64,343.42C552.64,348.03 550.22,352.26 544.77,352.26C539.31,352.26 536.9,348.03 536.9,343.42C536.9,338.83 539.31,334.6 544.77,334.6M544.77,350.47C548.4,350.47 550.35,347.33 550.35,343.42C550.35,339.53 548.4,336.38 544.77,336.38C541.13,336.38 539.19,339.52 539.19,343.42C539.19,347.33 541.13,350.47 544.77,350.47" style="fill:rgb(111,111,110);fill-rule:nonzero;"/>
            <path d="M576.75,351.33C575.29,351.93 573.41,352.26 571.86,352.26C566.27,352.26 564.19,348.48 564.19,343.42C564.19,338.26 567.03,334.6 571.29,334.6C576.06,334.6 578.01,338.43 578.01,342.97L578.01,344.02L566.48,344.02C566.48,347.6 568.4,350.47 572.03,350.47C573.55,350.47 575.77,349.85 576.76,349.21L576.76,351.33L576.75,351.33ZM575.72,342.24C575.72,339.3 574.54,336.39 571.42,336.39C568.35,336.39 566.47,339.47 566.47,342.24L575.72,342.24Z" style="fill:rgb(111,111,110);fill-rule:nonzero;"/>
            <path d="M595.17,351.86L593.09,351.86L593.09,349.18L593.02,349.18C591.9,351.33 590.19,352.26 587.77,352.26C583.14,352.26 580.83,348.42 580.83,343.42C580.83,338.3 582.81,334.6 587.77,334.6C591.07,334.6 592.72,337.02 593.02,337.83L593.09,337.83L593.09,327.06L595.17,327.06L595.17,351.86ZM588.1,350.47C591.8,350.47 593.09,346.5 593.09,343.42C593.09,340.35 591.81,336.38 588.1,336.38C584.12,336.38 583.11,340.15 583.11,343.42C583.1,346.7 584.12,350.47 588.1,350.47" style="fill:rgb(111,111,110);fill-rule:nonzero;"/>
            <path d="M613.19,347.9C613.19,349.18 613.19,350.5 613.32,351.86L611.3,351.86L611.3,348.85L611.24,348.85C610.55,350.37 609.29,352.26 605.79,352.26C601.62,352.26 600.05,349.48 600.05,345.78L600.05,335L602.13,335L602.13,345.25C602.13,348.42 603.24,350.47 606.13,350.47C609.93,350.47 611.11,347.14 611.11,344.32L611.11,335L613.19,335L613.19,347.9Z" style="fill:rgb(111,111,110);fill-rule:nonzero;"/>
            <path d="M629.22,337.25C628.1,336.75 626.74,336.38 625.62,336.38C621.56,336.38 619.27,339.32 619.27,343.42C619.27,347.26 621.58,350.47 625.39,350.47C626.72,350.47 627.93,350.18 629.19,349.71L629.39,351.65C627.97,352.16 626.65,352.26 625.06,352.26C619.63,352.26 616.98,348.13 616.98,343.42C616.98,338.23 620.33,334.6 625.31,334.6C627.33,334.6 628.79,335.07 629.38,335.26L629.22,337.25Z" style="fill:rgb(111,111,110);fill-rule:nonzero;"/>
            <path d="M642.46,349.15L642.39,349.15C641.47,351.16 639.12,352.26 637.04,352.26C632.25,352.26 631.5,349.01 631.5,347.5C631.5,341.83 637.52,341.58 641.88,341.58L642.28,341.58L642.28,340.72C642.28,337.83 641.25,336.39 638.43,336.39C636.69,336.39 635.03,336.79 633.48,337.77L633.48,335.75C634.77,335.13 636.95,334.6 638.43,334.6C642.61,334.6 644.36,336.48 644.36,340.88L644.36,348.32C644.36,349.68 644.36,350.7 644.52,351.86L642.46,351.86L642.46,349.15ZM642.28,343.37L641.67,343.37C638.07,343.37 633.78,343.73 633.78,347.43C633.78,349.64 635.35,350.47 637.28,350.47C642.18,350.47 642.28,346.2 642.28,344.39L642.28,343.37Z" style="fill:rgb(111,111,110);fill-rule:nonzero;"/>
            <path d="M656.42,336.79L652.58,336.79L652.58,347.7C652.58,349.21 653.16,350.47 654.84,350.47C655.63,350.47 656.15,350.3 656.76,350.08L656.89,351.8C656.39,352 655.37,352.27 654.35,352.27C650.65,352.27 650.51,349.72 650.51,346.64L650.51,336.8L647.2,336.8L647.2,335L650.51,335L650.51,330.93L652.59,330.2L652.59,335L656.42,335L656.42,336.79Z" style="fill:rgb(111,111,110);fill-rule:nonzero;"/>
            <path d="M662.07,330.5L659.99,330.5L659.99,327.72L662.07,327.72L662.07,330.5ZM659.99,335L662.07,335L662.07,351.86L659.99,351.86L659.99,335Z" style="fill:rgb(111,111,110);fill-rule:nonzero;"/>
            <path d="M673.02,351.86L670.57,351.86L664.85,335L667.14,335L671.79,349.58L671.86,349.58L676.76,335L678.93,335L673.02,351.86Z" style="fill:rgb(111,111,110);fill-rule:nonzero;"/>
            <path d="M688.26,334.6C693.71,334.6 696.12,338.83 696.12,343.42C696.12,348.03 693.71,352.26 688.26,352.26C682.81,352.26 680.4,348.03 680.4,343.42C680.4,338.83 682.81,334.6 688.26,334.6M688.26,350.47C691.89,350.47 693.85,347.33 693.85,343.42C693.85,339.53 691.89,336.38 688.26,336.38C684.62,336.38 682.68,339.52 682.68,343.42C682.68,347.33 684.63,350.47 688.26,350.47" style="fill:rgb(111,111,110);fill-rule:nonzero;"/>
            <path d="M213.36,263.28L189.67,243.1L189.67,348.73L213.36,368.9L213.36,263.28Z" style="fill:rgb(248,177,52);fill-rule:nonzero;"/>
            <path d="M292.07,309.95C293.14,308.12 294.01,306.22 294.69,304.19C295.94,300.55 296.56,296.63 296.56,292.45C296.56,288.32 295.94,284.42 294.69,280.79C292.98,275.83 290.15,271.39 286.17,267.4C279.47,260.7 271.47,257.28 262.08,257.04L213.37,257.04L189.68,236.86L181.74,236.86L130.48,292.88L130.48,292.82L79.34,236.85L71.37,236.85L71.37,354.94L95.09,354.94L95.09,289.2L130.54,327.91L165.93,289.2L165.93,354.96L189.68,354.96L213.37,375.13L273.6,375.13C282.99,374.87 291,371.45 297.72,364.72C301.7,360.77 304.5,356.33 306.22,351.41C307.46,347.74 308.08,343.78 308.08,339.66C308.08,335.48 307.46,331.6 306.22,327.92C304.5,323.01 301.7,318.55 297.72,314.61C295.94,312.83 294.07,311.26 292.07,309.95M269.39,284.22C271.7,286.48 272.84,289.25 272.84,292.46C272.84,295.7 271.7,298.47 269.39,300.78C267.18,302.99 264.51,304.14 261.42,304.2L213.36,304.2L189.67,284L189.67,260.59L213.36,280.79L261.42,280.79C264.51,280.85 267.17,282 269.39,284.22M280.9,331.38C283.2,333.68 284.36,336.45 284.36,339.66C284.36,342.89 283.2,345.66 280.9,347.96C278.69,350.17 276.02,351.32 272.94,351.41L213.36,351.41L189.67,331.21L189.67,307.75L213.36,327.92L272.94,327.92C276.02,328.01 278.7,329.13 280.9,331.38" style="fill:rgb(0,160,223);fill-rule:nonzero;"/>
        </g>
    </g>
</svg>
